<svg width="555" height="152" viewBox="0 0 555 152" fill="none" xmlns="http://www.w3.org/2000/svg">
<path d="M118.262 0.5625C122.656 0.72526 126.4 2.35286 129.492 5.44531C132.585 8.375 134.212 12.0371 134.375 16.4316V79.6641H148.291C152.848 79.8268 156.592 81.5358 159.521 84.791C162.614 88.0462 164.16 91.9525 164.16 96.5098C163.997 100.904 162.37 104.648 159.277 107.74C156.348 110.67 152.686 112.216 148.291 112.379H134.375V136.061C133.398 145.826 128.027 151.116 118.262 151.93C113.704 151.93 109.717 150.465 106.299 147.535C103.044 144.443 101.416 140.618 101.416 136.061V112.379H49.6582C38.265 111.728 28.8249 107.903 21.3379 100.904C14.0137 93.7428 8.72396 85.0352 5.46875 74.7812C2.3763 64.5273 0.748698 53.6224 0.585938 42.0664V16.4316C0.748698 12.0371 2.3763 8.375 5.46875 5.44531C8.5612 2.35286 12.3047 0.72526 16.6992 0.5625C21.2565 0.5625 25.1628 2.10872 28.418 5.20117C31.6732 8.13086 33.3822 11.8743 33.5449 16.4316V39.1367C33.3822 45.8099 33.7891 51.9948 34.7656 57.6914C35.9049 63.2253 38.5091 68.1895 42.5781 72.584C46.6471 76.9785 51.7741 79.3385 57.959 79.6641H101.416V16.4316C101.579 11.8743 103.288 8.13086 106.543 5.20117C109.798 2.10872 113.704 0.5625 118.262 0.5625ZM313.574 4.46875C321.875 4.63151 329.281 7.23568 335.791 12.2812C342.301 17.3268 347.51 23.349 351.416 30.3477C355.485 37.3464 358.496 44.752 360.449 52.5645C362.402 60.377 363.379 68.3522 363.379 76.4902C363.379 87.2324 361.67 97.8118 358.252 108.229C354.997 118.482 349.544 127.597 341.895 135.572C334.408 143.548 324.967 147.861 313.574 148.512H236.182C224.788 148.023 215.267 143.792 207.617 135.816C199.967 127.841 194.515 118.645 191.26 108.229C188.167 97.8118 186.621 87.2324 186.621 76.4902C186.621 65.748 188.249 55.25 191.504 44.9961C194.759 34.5794 200.13 25.3835 207.617 17.4082C215.267 9.27018 224.788 4.95703 236.182 4.46875H240.82H308.936H313.574ZM305.273 115.797C311.458 115.471 316.585 113.193 320.654 108.961C324.886 104.566 327.897 99.5208 329.688 93.8242C331.478 88.1276 332.373 82.3496 332.373 76.4902C332.373 70.6309 331.396 64.9342 329.443 59.4004C327.653 53.7038 324.723 48.6582 320.654 44.2637C316.585 39.8691 311.458 37.5091 305.273 37.1836H243.75C237.565 37.5091 232.438 39.8691 228.369 44.2637C224.3 48.6582 221.289 53.7038 219.336 59.4004C217.546 64.9342 216.65 70.6309 216.65 76.4902C216.65 82.3496 217.546 88.1276 219.336 93.8242C221.126 99.5208 224.056 104.566 228.125 108.961C232.357 113.193 237.565 115.471 243.75 115.797H305.273ZM508.887 0.5625C513.281 0.72526 517.025 2.35286 520.117 5.44531C523.21 8.375 524.837 12.0371 525 16.4316V79.6641H538.916C543.473 79.8268 547.217 81.5358 550.146 84.791C553.239 88.0462 554.785 91.9525 554.785 96.5098C554.622 100.904 552.995 104.648 549.902 107.74C546.973 110.67 543.311 112.216 538.916 112.379H525V136.061C524.023 145.826 518.652 151.116 508.887 151.93C504.329 151.93 500.342 150.465 496.924 147.535C493.669 144.443 492.041 140.618 492.041 136.061V112.379H440.283C428.89 111.728 419.45 107.903 411.963 100.904C404.639 93.7428 399.349 85.0352 396.094 74.7812C393.001 64.5273 391.374 53.6224 391.211 42.0664V16.4316C391.374 12.0371 393.001 8.375 396.094 5.44531C399.186 2.35286 402.93 0.72526 407.324 0.5625C411.882 0.5625 415.788 2.10872 419.043 5.20117C422.298 8.13086 424.007 11.8743 424.17 16.4316V39.1367C424.007 45.8099 424.414 51.9948 425.391 57.6914C426.53 63.2253 429.134 68.1895 433.203 72.584C437.272 76.9785 442.399 79.3385 448.584 79.6641H492.041V16.4316C492.204 11.8743 493.913 8.13086 497.168 5.20117C500.423 2.10872 504.329 0.5625 508.887 0.5625Z" fill="#304FFD"/>
</svg>